<?xml version="1.0" standalone="no"?>
<!DOCTYPE svg PUBLIC "-//W3C//DTD SVG 20010904//EN"
 "http://www.w3.org/TR/2001/REC-SVG-20010904/DTD/svg10.dtd">
<svg version="1.0" xmlns="http://www.w3.org/2000/svg"
 width="880.000000pt" height="707.000000pt" viewBox="0 0 880.000000 707.000000"
 preserveAspectRatio="xMidYMid meet">
<metadata>
Created by potrace 1.16, written by Peter Selinger 2001-2019
</metadata>
<g transform="translate(0.000000,707.000000) scale(0.100000,-0.100000)"
fill="#000000" stroke="none">
<path d="M7653 6881 c-119 -55 -275 -264 -533 -716 -252 -443 -403 -634 -743
-943 -241 -219 -395 -342 -552 -443 -107 -69 -260 -149 -284 -149 -34 0 -57
-16 -80 -55 -11 -19 -32 -40 -45 -47 -24 -10 -25 -14 -20 -67 6 -52 4 -58 -24
-84 -22 -21 -41 -29 -80 -31 -80 -6 -154 -46 -235 -128 -40 -40 -76 -72 -82
-73 -5 0 -18 -18 -29 -40 -10 -22 -33 -57 -51 -77 -48 -52 -98 -165 -135 -298
-102 -377 -168 -516 -340 -723 -80 -96 -82 -98 -101 -81 -19 17 -22 16 -93
-62 -91 -98 -163 -155 -268 -209 l-81 -42 34 -37 34 -36 79 40 c43 22 80 40
82 40 10 0 108 -158 153 -247 46 -92 108 -246 140 -345 11 -34 15 -37 62 -43
28 -4 52 -5 54 -3 6 6 -59 210 -101 320 -45 116 -115 256 -165 330 -22 31 -39
61 -39 65 0 5 34 42 75 83 51 51 74 81 71 92 -6 25 11 32 30 13 13 -12 14 -21
5 -47 -6 -17 -11 -37 -11 -44 0 -21 28 -17 35 5 4 12 12 17 24 14 12 -3 37 14
76 48 31 29 63 54 71 55 7 1 44 23 81 49 146 102 318 186 538 262 216 74 306
123 394 212 121 121 191 282 192 437 0 66 2 72 25 83 15 6 33 30 45 56 14 32
31 51 57 64 57 29 82 92 79 196 -2 66 1 76 51 177 78 158 159 265 327 433 288
289 644 548 1175 855 218 126 389 239 498 330 250 209 268 445 48 661 -145
144 -323 204 -443 150z m263 -66 c103 -52 222 -166 261 -250 24 -51 28 -73 28
-145 0 -105 -21 -154 -108 -246 -108 -117 -240 -210 -547 -389 -352 -205 -539
-324 -725 -463 -358 -268 -586 -487 -728 -700 -30 -45 -58 -78 -62 -72 -3 5
-2 10 3 10 6 0 13 7 16 16 5 14 4 15 -8 5 -11 -9 -16 -9 -22 0 -4 7 -3 9 4 5
8 -4 12 34 14 130 2 75 0 138 -4 141 -14 8 -9 23 10 30 9 4 19 10 22 13 3 4
48 42 100 86 147 121 293 255 435 398 213 215 319 359 524 716 101 175 264
438 333 537 65 93 132 163 188 197 40 24 54 27 116 24 60 -3 84 -10 150 -43z
m-2192 -2283 c56 -29 132 -77 170 -109 51 -42 67 -51 62 -35 -5 13 -3 22 3 22
15 0 14 -18 -5 -75 -14 -41 -18 -45 -27 -29 -15 30 -100 114 -114 114 -21 0
-15 -25 12 -50 14 -13 47 -56 74 -95 45 -67 48 -73 37 -106 -8 -23 -23 -40
-48 -54 l-37 -20 -44 43 c-50 50 -75 56 -53 15 8 -16 28 -42 44 -60 30 -32 30
-32 13 -65 -26 -54 -51 -48 -113 24 -58 69 -188 194 -256 247 l-42 33 20 25
c11 14 22 41 26 60 l7 35 66 -66 c60 -59 81 -71 81 -45 0 5 -30 40 -67 79
l-67 71 19 32 c32 57 42 63 91 62 34 -2 74 -16 148 -53z m-296 -286 c101 -81
242 -226 242 -250 0 -28 -35 -118 -71 -186 -19 -35 -45 -65 -72 -83 -23 -15
-64 -46 -92 -67 -27 -21 -72 -51 -100 -66 -49 -27 -49 -26 45 67 129 127 212
253 222 334 2 20 -2 31 -12 32 -10 2 -30 -28 -62 -94 -52 -108 -190 -284 -196
-250 -4 22 -25 22 -43 0 -28 -34 -202 -172 -211 -167 -5 3 -7 0 -6 -6 4 -16
-30 -22 -39 -8 -4 7 -1 8 7 3 10 -6 11 -2 6 18 -4 16 -1 31 9 40 8 8 11 17 8
21 -4 3 0 6 9 6 8 0 15 6 15 14 0 18 183 242 293 359 87 92 104 117 77 117
-12 0 -189 -175 -312 -310 -33 -35 -63 -64 -66 -63 -4 1 -10 -9 -13 -23 -4
-14 -11 -22 -17 -19 -6 5 -5 12 3 23 10 12 10 14 1 8 -7 -4 -13 -2 -13 3 0 6
4 11 10 11 5 0 14 10 20 23 10 20 10 20 -3 5 -21 -26 -32 -22 -14 5 12 19 13
24 2 24 -8 0 -12 -4 -10 -8 3 -4 -2 -10 -11 -13 -8 -3 -13 -10 -10 -15 4 -5 2
-11 -2 -13 -21 -8 -79 -104 -141 -233 -37 -77 -94 -187 -128 -245 -93 -162
-95 -157 39 -109 62 22 114 44 116 49 2 5 10 6 19 3 12 -5 14 -3 8 7 -6 9 -4
11 4 5 8 -4 18 1 26 12 7 11 32 28 54 38 23 10 41 22 41 28 0 5 8 6 17 3 10
-4 14 -4 10 0 -4 4 38 33 93 65 144 83 186 114 268 193 111 107 189 225 232
350 14 42 21 50 45 53 l28 4 -6 -90 c-11 -173 -118 -360 -260 -454 -77 -51
-353 -178 -503 -230 -72 -26 -148 -54 -170 -64 -41 -17 -47 -20 -65 -22 -5 0
-7 -5 -4 -11 3 -6 -1 -7 -10 -4 -40 16 -155 -66 -244 -171 -73 -87 -69 -48 6
59 96 137 180 283 213 369 125 332 160 418 206 510 24 49 64 117 88 151 57 79
190 206 260 245 56 32 84 41 50 16 -18 -14 -18 -14 4 -8 39 10 24 -17 -20 -37
-125 -57 -250 -190 -347 -371 -41 -78 -161 -373 -161 -398 0 -14 78 123 152
269 111 216 155 277 295 418 117 116 137 142 112 142 -8 0 -9 4 0 13 6 8 8 17
4 20 -3 4 -3 7 1 7 4 0 37 -24 74 -54z m36 -630 c-15 -25 -85 -87 -154 -137
-61 -45 -209 -121 -221 -113 -8 4 -9 3 -5 -4 4 -7 3 -12 -3 -12 -5 0 -13 10
-17 22 -8 28 -1 33 167 118 74 38 160 87 190 109 29 22 55 40 57 41 1 0 -5
-11 -14 -24z"/>
<path d="M5644 4354 c-31 -30 -30 -39 6 -76 24 -24 36 -29 58 -24 32 8 72 49
72 75 0 50 -94 68 -136 25z"/>
<path d="M1710 3031 c-13 -9 -11 -55 13 -373 67 -874 148 -1841 154 -1848 2
-2 26 18 53 46 l50 49 -25 275 c-13 151 -26 292 -28 313 -3 37 -1 38 75 89 43
28 80 49 82 47 1 -2 17 -47 35 -99 47 -137 131 -350 139 -350 3 0 28 21 54 47
38 37 45 50 37 64 -19 36 -127 317 -167 434 -98 286 -194 620 -302 1045 l-66
265 -45 3 c-24 1 -51 -2 -59 -7z m271 -1050 c32 -107 38 -136 27 -143 -7 -5
-34 -20 -60 -33 l-47 -25 -5 43 c-3 23 -15 157 -26 297 -11 140 -23 280 -25
310 -4 39 10 0 45 -130 28 -102 69 -245 91 -319z"/>
<path d="M2055 3013 c-30 -21 -36 -28 -22 -31 9 -2 17 -7 17 -12 0 -19 112
-611 154 -810 75 -358 184 -812 200 -827 11 -11 107 61 168 125 71 76 103 132
119 211 31 151 -49 402 -165 515 l-51 51 13 40 c29 84 1 300 -59 465 -57 153
-152 280 -219 294 -68 13 -114 7 -155 -21z m183 -204 c78 -27 160 -254 150
-420 -3 -63 -7 -74 -31 -95 -47 -40 -64 -32 -78 34 -50 240 -95 478 -92 485 6
10 14 9 51 -4z m225 -749 c65 -57 124 -221 114 -318 -7 -61 -44 -131 -86 -162
l-30 -21 -11 38 c-28 98 -110 442 -110 461 0 41 78 42 123 2z"/>
<path d="M1362 2940 c-56 -21 -124 -49 -150 -62 l-48 -23 67 -450 c184 -1221
289 -1887 299 -1898 7 -7 107 76 278 230 l53 48 -22 122 c-12 68 -25 123 -28
123 -3 0 -44 -32 -91 -72 -92 -77 -128 -103 -134 -97 -4 3 -112 675 -119 734
-2 15 19 31 93 72 52 29 99 54 103 55 6 3 -30 267 -38 276 -2 2 -48 -19 -103
-47 l-101 -50 -5 27 c-7 34 -96 628 -99 661 -2 21 8 27 103 63 58 22 106 41
108 43 2 2 -6 64 -17 138 -12 75 -21 138 -21 141 0 12 -27 5 -128 -34z"/>
<path d="M2602 2876 c-124 -141 -5 -817 180 -1018 56 -61 109 -88 173 -88 63
0 122 27 174 79 55 55 73 101 74 186 0 87 -30 180 -112 344 -138 276 -268 453
-376 510 -55 29 -78 26 -113 -13z m148 -171 c95 -49 296 -418 330 -605 15 -80
5 -124 -37 -166 -111 -111 -251 42 -335 365 -26 99 -31 135 -32 252 -1 168 8
188 74 154z"/>
<path d="M923 2740 c-44 -10 -79 -34 -135 -91 l-46 -48 38 -233 c21 -128 57
-354 80 -503 22 -148 47 -310 55 -360 8 -49 51 -335 95 -635 44 -300 82 -559
85 -576 l6 -32 49 16 c34 11 50 21 50 33 0 9 -34 243 -75 520 -80 535 -79 519
-24 519 52 0 87 -97 164 -460 65 -306 102 -467 113 -486 6 -12 14 -9 42 12 19
14 41 29 49 33 11 7 7 35 -22 157 -20 82 -61 263 -92 402 -63 286 -94 394
-135 468 -28 50 -28 50 -12 105 25 88 22 396 -6 579 -53 337 -123 529 -212
575 -16 8 -30 15 -32 14 -2 -1 -18 -4 -35 -9z m95 -328 c82 -146 130 -621 76
-737 -17 -35 -68 -75 -80 -62 -6 6 -124 765 -124 800 0 20 8 32 32 47 40 24
62 13 96 -48z"/>
<path d="M3154 2679 c-70 -35 -75 -188 -13 -355 62 -166 165 -277 292 -316
131 -40 271 -8 304 70 36 86 -14 196 -154 342 -180 188 -357 295 -429 259z
m161 -145 c128 -60 315 -288 315 -383 0 -53 -47 -79 -122 -67 -119 19 -230
144 -279 313 -22 77 -23 101 -9 138 9 23 14 26 38 20 15 -3 41 -13 57 -21z"/>
<path d="M3715 2595 c-5 -2 -22 -6 -38 -9 -41 -10 -67 -40 -67 -81 0 -47 20
-83 70 -129 50 -45 107 -71 192 -86 116 -21 158 -46 185 -108 22 -52 4 -66
-72 -59 -83 8 -95 14 -116 61 l-19 41 0 -49 c0 -108 30 -136 167 -156 75 -10
119 2 147 41 37 53 8 165 -60 233 -49 50 -95 68 -222 90 -90 16 -122 31 -149
72 -16 25 -16 27 3 41 13 9 42 14 89 13 39 -1 73 -1 77 -1 4 1 0 21 -9 46
l-15 45 -76 -1 c-43 0 -81 -2 -87 -4z"/>
<path d="M565 2545 c-69 -24 -138 -122 -171 -242 -22 -82 -29 -304 -15 -453
23 -232 104 -660 181 -955 111 -426 226 -663 330 -680 48 -8 98 26 126 85 l21
45 -31 152 c-17 84 -33 153 -37 153 -3 0 -11 -17 -17 -39 -17 -54 -48 -91 -78
-91 -89 0 -204 298 -299 770 -123 615 -115 958 23 1011 31 12 82 -10 111 -47
l22 -29 -5 30 c-3 17 -7 66 -11 110 -10 141 -14 155 -49 176 -37 22 -48 23
-101 4z"/>
</g>
</svg>
